<svg xmlns="http://www.w3.org/2000/svg" style="display:none">
<!-- ═══ C 언어 학습 플랫폼 — Premium SVG Icon System ═══ -->
<!-- viewBox: 0 0 24 24 | stroke-width: 1.8 | stroke-linecap/join: round -->

<!-- ─── Chapter Icons ─── -->
<symbol id="ic-code-intro" viewBox="0 0 24 24" fill="none" stroke="currentColor" stroke-width="1.8" stroke-linecap="round" stroke-linejoin="round">
  <polyline points="16 18 22 12 16 6"/><polyline points="8 6 2 12 8 18"/>
</symbol>

<symbol id="ic-variable" viewBox="0 0 24 24" fill="none" stroke="currentColor" stroke-width="1.8" stroke-linecap="round" stroke-linejoin="round">
  <rect x="3" y="3" width="18" height="18" rx="3"/><path d="M8 16l2.5-8h3L16 16"/><line x1="9.5" y1="13" x2="14.5" y2="13"/>
</symbol>

<symbol id="ic-datatype" viewBox="0 0 24 24" fill="none" stroke="currentColor" stroke-width="1.8" stroke-linecap="round" stroke-linejoin="round">
  <rect x="2" y="4" width="6" height="6" rx="1.5"/><rect x="9" y="4" width="6" height="6" rx="1.5"/><rect x="16" y="4" width="6" height="6" rx="1.5"/><rect x="2" y="14" width="6" height="6" rx="1.5"/><rect x="9" y="14" width="6" height="6" rx="1.5"/><rect x="16" y="14" width="6" height="6" rx="1.5"/>
</symbol>

<symbol id="ic-input" viewBox="0 0 24 24" fill="none" stroke="currentColor" stroke-width="1.8" stroke-linecap="round" stroke-linejoin="round">
  <rect x="2" y="6" width="20" height="12" rx="3"/><path d="M6 12h4"/><path d="M14 12h4"/><circle cx="12" cy="12" r="1.5"/>
</symbol>

<symbol id="ic-condition" viewBox="0 0 24 24" fill="none" stroke="currentColor" stroke-width="1.8" stroke-linecap="round" stroke-linejoin="round">
  <path d="M12 3l9 9-9 9-9-9z"/><path d="M12 8v4"/><circle cx="12" cy="15" r="0.5" fill="currentColor"/>
</symbol>

<symbol id="ic-bitwise" viewBox="0 0 24 24" fill="none" stroke="currentColor" stroke-width="1.8" stroke-linecap="round" stroke-linejoin="round">
  <rect x="3" y="3" width="7" height="4" rx="1"/><rect x="14" y="3" width="7" height="4" rx="1"/><rect x="3" y="10" width="7" height="4" rx="1"/><rect x="14" y="10" width="7" height="4" rx="1"/><rect x="3" y="17" width="7" height="4" rx="1"/><rect x="14" y="17" width="7" height="4" rx="1"/><line x1="10" y1="5" x2="14" y2="5"/><line x1="10" y1="12" x2="14" y2="12"/><line x1="10" y1="19" x2="14" y2="19"/>
</symbol>

<symbol id="ic-loop" viewBox="0 0 24 24" fill="none" stroke="currentColor" stroke-width="1.8" stroke-linecap="round" stroke-linejoin="round">
  <path d="M17 2l4 4-4 4"/><path d="M3 11V9a4 4 0 0 1 4-4h14"/><path d="M7 22l-4-4 4-4"/><path d="M21 13v2a4 4 0 0 1-4 4H3"/>
</symbol>

<symbol id="ic-array" viewBox="0 0 24 24" fill="none" stroke="currentColor" stroke-width="1.8" stroke-linecap="round" stroke-linejoin="round">
  <rect x="2" y="7" width="5" height="10" rx="1.5"/><rect x="9.5" y="7" width="5" height="10" rx="1.5"/><rect x="17" y="7" width="5" height="10" rx="1.5"/><path d="M4.5 11h0" stroke-width="3" stroke-linecap="round"/><path d="M12 11h0" stroke-width="3" stroke-linecap="round"/><path d="M19.5 11h0" stroke-width="3" stroke-linecap="round"/>
</symbol>

<symbol id="ic-string" viewBox="0 0 24 24" fill="none" stroke="currentColor" stroke-width="1.8" stroke-linecap="round" stroke-linejoin="round">
  <path d="M4 7V4h16v3"/><path d="M12 4v16"/><path d="M8 20h8"/>
</symbol>

<symbol id="ic-pointer" viewBox="0 0 24 24" fill="none" stroke="currentColor" stroke-width="1.8" stroke-linecap="round" stroke-linejoin="round">
  <path d="M5 3l14 9-6 1-3 6z"/><path d="M14 17l4 4"/>
</symbol>

<symbol id="ic-function" viewBox="0 0 24 24" fill="none" stroke="currentColor" stroke-width="1.8" stroke-linecap="round" stroke-linejoin="round">
  <path d="M10 4a2 2 0 0 1 2 2v12a2 2 0 0 1-2 2"/><path d="M14 4a2 2 0 0 0-2 2v12a2 2 0 0 0 2 2"/><line x1="6" y1="12" x2="18" y2="12"/>
</symbol>

<symbol id="ic-struct" viewBox="0 0 24 24" fill="none" stroke="currentColor" stroke-width="1.8" stroke-linecap="round" stroke-linejoin="round">
  <rect x="3" y="3" width="18" height="18" rx="3"/><line x1="3" y1="9" x2="21" y2="9"/><line x1="3" y1="15" x2="21" y2="15"/><line x1="12" y1="9" x2="12" y2="21"/>
</symbol>

<symbol id="ic-file-io" viewBox="0 0 24 24" fill="none" stroke="currentColor" stroke-width="1.8" stroke-linecap="round" stroke-linejoin="round">
  <path d="M14 2H6a2 2 0 0 0-2 2v16a2 2 0 0 0 2 2h12a2 2 0 0 0 2-2V8z"/><polyline points="14 2 14 8 20 8"/><line x1="9" y1="13" x2="15" y2="13"/><line x1="9" y1="17" x2="13" y2="17"/>
</symbol>

<symbol id="ic-preprocessor" viewBox="0 0 24 24" fill="none" stroke="currentColor" stroke-width="1.8" stroke-linecap="round" stroke-linejoin="round">
  <line x1="4" y1="8" x2="20" y2="8"/><line x1="4" y1="16" x2="20" y2="16"/><line x1="8" y1="4" x2="8" y2="20"/><line x1="16" y1="4" x2="16" y2="20"/>
</symbol>

<symbol id="ic-sort" viewBox="0 0 24 24" fill="none" stroke="currentColor" stroke-width="1.8" stroke-linecap="round" stroke-linejoin="round">
  <rect x="3" y="18" width="4" height="4" rx="1"/><rect x="10" y="12" width="4" height="10" rx="1"/><rect x="17" y="6" width="4" height="16" rx="1"/><path d="M6 6l3-3 3 3"/><line x1="9" y1="3" x2="9" y2="12"/>
</symbol>

<symbol id="ic-advanced" viewBox="0 0 24 24" fill="none" stroke="currentColor" stroke-width="1.8" stroke-linecap="round" stroke-linejoin="round">
  <polygon points="12 2 15.09 8.26 22 9.27 17 14.14 18.18 21.02 12 17.77 5.82 21.02 7 14.14 2 9.27 8.91 8.26 12 2"/>
</symbol>

<symbol id="ic-project" viewBox="0 0 24 24" fill="none" stroke="currentColor" stroke-width="1.8" stroke-linecap="round" stroke-linejoin="round">
  <path d="M22 19a2 2 0 0 1-2 2H4a2 2 0 0 1-2-2V5a2 2 0 0 1 2-2h5l2 3h9a2 2 0 0 1 2 2z"/><line x1="12" y1="11" x2="12" y2="17"/><line x1="9" y1="14" x2="15" y2="14"/>
</symbol>

<symbol id="ic-book" viewBox="0 0 24 24" fill="none" stroke="currentColor" stroke-width="1.8" stroke-linecap="round" stroke-linejoin="round">
  <path d="M4 19.5A2.5 2.5 0 0 1 6.5 17H20"/><path d="M6.5 2H20v20H6.5A2.5 2.5 0 0 1 4 19.5v-15A2.5 2.5 0 0 1 6.5 2z"/><line x1="8" y1="7" x2="16" y2="7"/><line x1="8" y1="11" x2="14" y2="11"/>
</symbol>

<symbol id="ic-trophy" viewBox="0 0 24 24" fill="none" stroke="currentColor" stroke-width="1.8" stroke-linecap="round" stroke-linejoin="round">
  <path d="M6 9H4a2 2 0 0 1-2-2V5h4"/><path d="M18 9h2a2 2 0 0 0 2-2V5h-4"/><path d="M4 5h16v4a6 6 0 0 1-6 6h-4a6 6 0 0 1-6-6V5z"/><path d="M12 15v3"/><path d="M8 21h8"/><path d="M8 21v-3h8v3"/>
</symbol>

<symbol id="ic-certification" viewBox="0 0 24 24" fill="none" stroke="currentColor" stroke-width="1.8" stroke-linecap="round" stroke-linejoin="round">
  <rect x="3" y="3" width="18" height="14" rx="2"/><path d="M7 10h4"/><path d="M7 14h6"/><circle cx="18" cy="18" r="3"/><path d="M18 16.5v2l1.5 1"/>
</symbol>

<symbol id="ic-terminal" viewBox="0 0 24 24" fill="none" stroke="currentColor" stroke-width="1.8" stroke-linecap="round" stroke-linejoin="round">
  <rect x="2" y="4" width="20" height="16" rx="3"/><polyline points="7 10 10 13 7 16"/><line x1="13" y1="16" x2="17" y2="16"/>
</symbol>

<symbol id="ic-graph" viewBox="0 0 24 24" fill="none" stroke="currentColor" stroke-width="1.8" stroke-linecap="round" stroke-linejoin="round">
  <circle cx="6" cy="6" r="2.5"/><circle cx="18" cy="6" r="2.5"/><circle cx="6" cy="18" r="2.5"/><circle cx="18" cy="18" r="2.5"/><line x1="8.5" y1="6" x2="15.5" y2="6"/><line x1="6" y1="8.5" x2="6" y2="15.5"/><line x1="18" y1="8.5" x2="18" y2="15.5"/><line x1="8.2" y1="7.8" x2="15.8" y2="16.2"/>
</symbol>

<symbol id="ic-warning" viewBox="0 0 24 24" fill="none" stroke="currentColor" stroke-width="1.8" stroke-linecap="round" stroke-linejoin="round">
  <path d="M10.29 3.86L1.82 18a2 2 0 0 0 1.71 3h16.94a2 2 0 0 0 1.71-3L13.71 3.86a2 2 0 0 0-3.42 0z"/><line x1="12" y1="9" x2="12" y2="13"/><circle cx="12" cy="16.5" r="0.5" fill="currentColor"/>
</symbol>

<symbol id="ic-target" viewBox="0 0 24 24" fill="none" stroke="currentColor" stroke-width="1.8" stroke-linecap="round" stroke-linejoin="round">
  <circle cx="12" cy="12" r="10"/><circle cx="12" cy="12" r="6"/><circle cx="12" cy="12" r="2"/>
</symbol>

<symbol id="ic-gear" viewBox="0 0 24 24" fill="none" stroke="currentColor" stroke-width="1.8" stroke-linecap="round" stroke-linejoin="round">
  <circle cx="12" cy="12" r="3"/><path d="M19.4 15a1.65 1.65 0 0 0 .33 1.82l.06.06a2 2 0 0 1-2.83 2.83l-.06-.06a1.65 1.65 0 0 0-1.82-.33 1.65 1.65 0 0 0-1 1.51V21a2 2 0 0 1-4 0v-.09A1.65 1.65 0 0 0 9 19.4a1.65 1.65 0 0 0-1.82.33l-.06.06a2 2 0 0 1-2.83-2.83l.06-.06A1.65 1.65 0 0 0 4.68 15a1.65 1.65 0 0 0-1.51-1H3a2 2 0 0 1 0-4h.09A1.65 1.65 0 0 0 4.6 9a1.65 1.65 0 0 0-.33-1.82l-.06-.06a2 2 0 0 1 2.83-2.83l.06.06A1.65 1.65 0 0 0 9 4.68a1.65 1.65 0 0 0 1-1.51V3a2 2 0 0 1 4 0v.09a1.65 1.65 0 0 0 1 1.51 1.65 1.65 0 0 0 1.82-.33l.06-.06a2 2 0 0 1 2.83 2.83l-.06.06A1.65 1.65 0 0 0 19.4 9a1.65 1.65 0 0 0 1.51 1H21a2 2 0 0 1 0 4h-.09a1.65 1.65 0 0 0-1.51 1z"/>
</symbol>

<symbol id="ic-data-struct" viewBox="0 0 24 24" fill="none" stroke="currentColor" stroke-width="1.8" stroke-linecap="round" stroke-linejoin="round">
  <rect x="3" y="3" width="7" height="7" rx="1.5"/><rect x="14" y="3" width="7" height="7" rx="1.5"/><rect x="8.5" y="14" width="7" height="7" rx="1.5"/><path d="M6.5 10v2l5.5 2"/><path d="M17.5 10v2l-5.5 2"/>
</symbol>

<symbol id="ic-mock-exam" viewBox="0 0 24 24" fill="none" stroke="currentColor" stroke-width="1.8" stroke-linecap="round" stroke-linejoin="round">
  <rect x="4" y="2" width="16" height="20" rx="2"/><line x1="8" y1="6" x2="16" y2="6"/><line x1="8" y1="10" x2="16" y2="10"/><line x1="8" y1="14" x2="12" y2="14"/><polyline points="14 14 15.5 16 19 12"/>
</symbol>

<!-- ─── System Icons ─── -->
<symbol id="ic-check" viewBox="0 0 24 24" fill="none" stroke="currentColor" stroke-width="2.2" stroke-linecap="round" stroke-linejoin="round">
  <circle cx="12" cy="12" r="10"/><polyline points="8 12 11 15 16 9"/>
</symbol>

<symbol id="ic-arrow-left" viewBox="0 0 24 24" fill="none" stroke="currentColor" stroke-width="1.8" stroke-linecap="round" stroke-linejoin="round">
  <line x1="19" y1="12" x2="5" y2="12"/><polyline points="12 19 5 12 12 5"/>
</symbol>

<symbol id="ic-arrow-right" viewBox="0 0 24 24" fill="none" stroke="currentColor" stroke-width="1.8" stroke-linecap="round" stroke-linejoin="round">
  <line x1="5" y1="12" x2="19" y2="12"/><polyline points="12 5 19 12 12 19"/>
</symbol>

<symbol id="ic-submit" viewBox="0 0 24 24" fill="none" stroke="currentColor" stroke-width="1.8" stroke-linecap="round" stroke-linejoin="round">
  <path d="M22 2L11 13"/><polygon points="22 2 15 22 11 13 2 9 22 2"/>
</symbol>

<symbol id="ic-star" viewBox="0 0 24 24" fill="none" stroke="currentColor" stroke-width="1.8" stroke-linecap="round" stroke-linejoin="round">
  <polygon points="12 2 15.09 8.26 22 9.27 17 14.14 18.18 21.02 12 17.77 5.82 21.02 7 14.14 2 9.27 8.91 8.26 12 2"/>
</symbol>

<symbol id="ic-star-fill" viewBox="0 0 24 24" fill="currentColor" stroke="none">
  <polygon points="12 2 15.09 8.26 22 9.27 17 14.14 18.18 21.02 12 17.77 5.82 21.02 7 14.14 2 9.27 8.91 8.26 12 2"/>
</symbol>

<symbol id="ic-clock" viewBox="0 0 24 24" fill="none" stroke="currentColor" stroke-width="1.8" stroke-linecap="round" stroke-linejoin="round">
  <circle cx="12" cy="12" r="10"/><polyline points="12 6 12 12 16 14"/>
</symbol>

<symbol id="ic-lightbulb" viewBox="0 0 24 24" fill="none" stroke="currentColor" stroke-width="1.8" stroke-linecap="round" stroke-linejoin="round">
  <path d="M9 18h6"/><path d="M10 22h4"/><path d="M12 2a7 7 0 0 0-4 12.7V17h8v-2.3A7 7 0 0 0 12 2z"/>
</symbol>

<symbol id="ic-search" viewBox="0 0 24 24" fill="none" stroke="currentColor" stroke-width="1.8" stroke-linecap="round" stroke-linejoin="round">
  <circle cx="11" cy="11" r="8"/><line x1="21" y1="21" x2="16.65" y2="16.65"/>
</symbol>

<symbol id="ic-moon" viewBox="0 0 24 24" fill="none" stroke="currentColor" stroke-width="1.8" stroke-linecap="round" stroke-linejoin="round">
  <path d="M21 12.79A9 9 0 1 1 11.21 3 7 7 0 0 0 21 12.79z"/>
</symbol>

<symbol id="ic-sun" viewBox="0 0 24 24" fill="none" stroke="currentColor" stroke-width="1.8" stroke-linecap="round" stroke-linejoin="round">
  <circle cx="12" cy="12" r="5"/><line x1="12" y1="1" x2="12" y2="3"/><line x1="12" y1="21" x2="12" y2="23"/><line x1="4.22" y1="4.22" x2="5.64" y2="5.64"/><line x1="18.36" y1="18.36" x2="19.78" y2="19.78"/><line x1="1" y1="12" x2="3" y2="12"/><line x1="21" y1="12" x2="23" y2="12"/><line x1="4.22" y1="19.78" x2="5.64" y2="18.36"/><line x1="18.36" y1="5.64" x2="19.78" y2="4.22"/>
</symbol>

<symbol id="ic-problems" viewBox="0 0 24 24" fill="none" stroke="currentColor" stroke-width="1.8" stroke-linecap="round" stroke-linejoin="round">
  <path d="M14 2H6a2 2 0 0 0-2 2v16a2 2 0 0 0 2 2h12a2 2 0 0 0 2-2V8z"/><polyline points="14 2 14 8 20 8"/><line x1="8" y1="13" x2="16" y2="13"/><line x1="8" y1="17" x2="16" y2="17"/><polyline points="10 9 9 10 8 9"/>
</symbol>

<symbol id="ic-c-logo" viewBox="0 0 24 24" fill="none" stroke="currentColor" stroke-width="1.8" stroke-linecap="round" stroke-linejoin="round">
  <circle cx="12" cy="12" r="10"/><path d="M15.5 8.5A5 5 0 1 0 15.5 15.5"/>
</symbol>

</svg>
