<svg xmlns="http://www.w3.org/2000/svg" viewBox="0 0 120 120" width="120" height="120">
  <defs>
    <linearGradient id="wl" x1="0" y1="0" x2="1" y2="1"><stop offset="0%" stop-color="#FF6B6B"/><stop offset="100%" stop-color="#FF8E8E"/></linearGradient>
    <linearGradient id="wr" x1="1" y1="0" x2="0" y2="1"><stop offset="0%" stop-color="#4ECDC4"/><stop offset="100%" stop-color="#6EE7DE"/></linearGradient>
    <filter id="sh"><feDropShadow dx="0" dy="1" stdDeviation="2" flood-color="#000" flood-opacity="0.12"/></filter>
  </defs>
  <!-- 날개 (축 처짐) -->
  <ellipse cx="38" cy="50" rx="22" ry="16" fill="url(#wl)" opacity="0.6" transform="rotate(5 38 50)"/>
  <ellipse cx="35" cy="70" rx="16" ry="12" fill="url(#wl)" opacity="0.5" transform="rotate(8 35 70)"/>
  <ellipse cx="82" cy="50" rx="22" ry="16" fill="url(#wr)" opacity="0.6" transform="rotate(-5 82 50)"/>
  <ellipse cx="85" cy="70" rx="16" ry="12" fill="url(#wr)" opacity="0.5" transform="rotate(-8 85 70)"/>
  <!-- 몸통 -->
  <ellipse cx="60" cy="62" rx="12" ry="18" fill="#FFE66D" filter="url(#sh)"/>
  <!-- 머리 -->
  <circle cx="60" cy="38" r="16" fill="#FFE66D" filter="url(#sh)"/>
  <!-- 눈 (울먹) -->
  <ellipse cx="53" cy="35" rx="4" ry="5" fill="#2C3E50"/>
  <circle cx="51.5" cy="33" r="1.5" fill="white"/>
  <ellipse cx="67" cy="35" rx="4" ry="5" fill="#2C3E50"/>
  <circle cx="65.5" cy="33" r="1.5" fill="white"/>
  <!-- 눈물 -->
  <path d="M49 40 Q48 46 50 48" fill="#74B9FF" opacity="0.7"/>
  <path d="M71 40 Q72 46 70 48" fill="#74B9FF" opacity="0.7"/>
  <!-- 입 (울상) -->
  <path d="M54 46 Q60 42 66 46" stroke="#2C3E50" stroke-width="2" fill="none" stroke-linecap="round"/>
  <!-- 볼터치 -->
  <ellipse cx="47" cy="42" rx="4" ry="2.5" fill="#FFB3B3" opacity="0.4"/>
  <ellipse cx="73" cy="42" rx="4" ry="2.5" fill="#FFB3B3" opacity="0.4"/>
  <!-- 더듬이 (축 처짐) -->
  <path d="M54 24 Q50 15 44 14" stroke="#2C3E50" stroke-width="2" fill="none" stroke-linecap="round"/>
  <circle cx="44" cy="14" r="3" fill="#FF6B6B" opacity="0.7"/>
  <path d="M66 24 Q70 15 76 14" stroke="#2C3E50" stroke-width="2" fill="none" stroke-linecap="round"/>
  <circle cx="76" cy="14" r="3" fill="#4ECDC4" opacity="0.7"/>
  <!-- 에러 표시 -->
  <rect x="80" y="24" rx="4" ry="4" width="32" height="18" fill="#FFF0F0" stroke="#E74C3C" stroke-width="1.5"/>
  <text x="86" y="36" font-family="JetBrains Mono, monospace" font-size="8" fill="#E74C3C" font-weight="bold">ERROR</text>
  <!-- 다리 -->
  <line x1="55" y1="78" x2="53" y2="90" stroke="#2C3E50" stroke-width="2" stroke-linecap="round"/>
  <line x1="60" y1="79" x2="60" y2="91" stroke="#2C3E50" stroke-width="2" stroke-linecap="round"/>
  <line x1="65" y1="78" x2="67" y2="90" stroke="#2C3E50" stroke-width="2" stroke-linecap="round"/>
</svg>
