<svg xmlns="http://www.w3.org/2000/svg" viewBox="0 0 120 120" width="120" height="120">
  <defs>
    <linearGradient id="wl" x1="0" y1="0" x2="1" y2="1"><stop offset="0%" stop-color="#FF6B6B"/><stop offset="100%" stop-color="#FF8E8E"/></linearGradient>
    <linearGradient id="wr" x1="1" y1="0" x2="0" y2="1"><stop offset="0%" stop-color="#4ECDC4"/><stop offset="100%" stop-color="#6EE7DE"/></linearGradient>
    <filter id="sh"><feDropShadow dx="0" dy="1" stdDeviation="2" flood-color="#000" flood-opacity="0.12"/></filter>
    <linearGradient id="confetti1" x1="0" y1="0" x2="1" y2="1"><stop offset="0%" stop-color="#FF6B6B"/><stop offset="100%" stop-color="#FFD93D"/></linearGradient>
    <linearGradient id="confetti2" x1="0" y1="0" x2="1" y2="1"><stop offset="0%" stop-color="#4ECDC4"/><stop offset="100%" stop-color="#6C5CE7"/></linearGradient>
  </defs>
  <!-- 컨페티 -->
  <rect x="15" y="8" width="5" height="3" rx="1" fill="#FF6B6B" transform="rotate(30 17 9)" opacity="0.8"/>
  <rect x="30" y="3" width="4" height="3" rx="1" fill="#4ECDC4" transform="rotate(-20 32 4)" opacity="0.7"/>
  <rect x="88" y="5" width="5" height="3" rx="1" fill="#FFD93D" transform="rotate(45 90 6)" opacity="0.8"/>
  <rect x="100" y="12" width="4" height="3" rx="1" fill="#6C5CE7" transform="rotate(-30 102 13)" opacity="0.7"/>
  <circle cx="22" cy="20" r="2" fill="#FF6B6B" opacity="0.6"/>
  <circle cx="98" cy="22" r="2.5" fill="#4ECDC4" opacity="0.6"/>
  <circle cx="10" cy="45" r="1.5" fill="#FFD93D" opacity="0.5"/>
  <circle cx="110" cy="40" r="2" fill="#6C5CE7" opacity="0.5"/>
  <rect x="5" y="30" width="4" height="2.5" rx="1" fill="#FF8E8E" transform="rotate(60 7 31)" opacity="0.6"/>
  <rect x="108" y="28" width="4" height="2.5" rx="1" fill="#4ECDC4" transform="rotate(-45 110 29)" opacity="0.6"/>
  <!-- 날개 (활짝! 최대) -->
  <ellipse cx="30" cy="38" rx="30" ry="24" fill="url(#wl)" opacity="0.95" transform="rotate(-25 30 38)"/>
  <ellipse cx="30" cy="38" rx="20" ry="15" fill="#FFB3B3" opacity="0.3" transform="rotate(-25 30 38)"/>
  <ellipse cx="28" cy="66" rx="24" ry="17" fill="url(#wl)" opacity="0.85" transform="rotate(-15 28 66)"/>
  <ellipse cx="90" cy="38" rx="30" ry="24" fill="url(#wr)" opacity="0.95" transform="rotate(25 90 38)"/>
  <ellipse cx="90" cy="38" rx="20" ry="15" fill="#B3F0EB" opacity="0.3" transform="rotate(25 90 38)"/>
  <ellipse cx="92" cy="66" rx="24" ry="17" fill="url(#wr)" opacity="0.85" transform="rotate(15 92 66)"/>
  <!-- 몸통 -->
  <ellipse cx="60" cy="62" rx="12" ry="18" fill="#FFE66D" filter="url(#sh)"/>
  <ellipse cx="60" cy="62" rx="9" ry="14" fill="#FFF3B0" opacity="0.5"/>
  <!-- 머리 -->
  <circle cx="60" cy="38" r="16" fill="#FFE66D" filter="url(#sh)"/>
  <!-- 눈 (^_^ 행복) -->
  <path d="M49 35 Q53 30 57 35" stroke="#2C3E50" stroke-width="2.5" fill="none" stroke-linecap="round"/>
  <path d="M63 35 Q67 30 71 35" stroke="#2C3E50" stroke-width="2.5" fill="none" stroke-linecap="round"/>
  <!-- 입 (크게 활짝 웃음) -->
  <path d="M50 42 Q60 54 70 42" stroke="#2C3E50" stroke-width="2" fill="#FF8E8E" opacity="0.5" stroke-linecap="round"/>
  <!-- 볼터치 (더 강하게) -->
  <ellipse cx="45" cy="42" rx="5" ry="3" fill="#FFB3B3" opacity="0.8"/>
  <ellipse cx="75" cy="42" rx="5" ry="3" fill="#FFB3B3" opacity="0.8"/>
  <!-- 더듬이 (활기차게) -->
  <path d="M54 24 Q44 6 38 3" stroke="#2C3E50" stroke-width="2" fill="none" stroke-linecap="round"/>
  <circle cx="38" cy="3" r="4" fill="#FF6B6B"/>
  <path d="M66 24 Q76 6 82 3" stroke="#2C3E50" stroke-width="2" fill="none" stroke-linecap="round"/>
  <circle cx="82" cy="3" r="4" fill="#4ECDC4"/>
  <!-- 두 팔 만세 -->
  <path d="M42 56 Q28 40 20 32" stroke="#FFE66D" stroke-width="4" fill="none" stroke-linecap="round"/>
  <path d="M78 56 Q92 40 100 32" stroke="#FFE66D" stroke-width="4" fill="none" stroke-linecap="round"/>
  <!-- 별 반짝 -->
  <path d="M18 28 l2-4 2 4 4-2 -4 2 -2 4 -2-4 -4 2z" fill="#FFD93D" opacity="0.8"/>
  <path d="M102 28 l2-4 2 4 4-2 -4 2 -2 4 -2-4 -4 2z" fill="#FFD93D" opacity="0.8"/>
  <!-- 다리 (점프!) -->
  <line x1="54" y1="78" x2="48" y2="86" stroke="#2C3E50" stroke-width="2" stroke-linecap="round"/>
  <line x1="60" y1="79" x2="60" y2="88" stroke="#2C3E50" stroke-width="2" stroke-linecap="round"/>
  <line x1="66" y1="78" x2="72" y2="86" stroke="#2C3E50" stroke-width="2" stroke-linecap="round"/>
  <!-- 트로피 -->
  <rect x="80" y="82" rx="3" ry="3" width="28" height="24" fill="white" stroke="#FFD93D" stroke-width="1.5" opacity="0.95"/>
  <text x="86" y="98" font-family="Pretendard, sans-serif" font-size="9" font-weight="700" fill="#FFD93D">🏆 완료!</text>
</svg>
