<svg xmlns="http://www.w3.org/2000/svg" viewBox="0 0 120 120" width="120" height="120">
  <defs>
    <linearGradient id="wl" x1="0" y1="0" x2="1" y2="1"><stop offset="0%" stop-color="#FF6B6B"/><stop offset="100%" stop-color="#FF8E8E"/></linearGradient>
    <linearGradient id="wr" x1="1" y1="0" x2="0" y2="1"><stop offset="0%" stop-color="#4ECDC4"/><stop offset="100%" stop-color="#6EE7DE"/></linearGradient>
    <filter id="sh"><feDropShadow dx="0" dy="1" stdDeviation="2" flood-color="#000" flood-opacity="0.12"/></filter>
  </defs>
  <!-- 날개 -->
  <ellipse cx="38" cy="45" rx="24" ry="18" fill="url(#wl)" opacity="0.85" transform="rotate(-10 38 45)"/>
  <ellipse cx="35" cy="68" rx="18" ry="13" fill="url(#wl)" opacity="0.7" transform="rotate(-8 35 68)"/>
  <ellipse cx="82" cy="45" rx="24" ry="18" fill="url(#wr)" opacity="0.85" transform="rotate(10 82 45)"/>
  <ellipse cx="85" cy="68" rx="18" ry="13" fill="url(#wr)" opacity="0.7" transform="rotate(8 85 68)"/>
  <!-- 몸통 -->
  <ellipse cx="60" cy="62" rx="12" ry="18" fill="#FFE66D" filter="url(#sh)"/>
  <ellipse cx="60" cy="62" rx="9" ry="14" fill="#FFF3B0" opacity="0.5"/>
  <!-- 머리 -->
  <circle cx="60" cy="38" r="16" fill="#FFE66D" filter="url(#sh)"/>
  <!-- 눈 (하나 감고 생각) -->
  <ellipse cx="53" cy="36" rx="4" ry="4.5" fill="#2C3E50"/>
  <circle cx="51.5" cy="34.5" r="1.5" fill="white"/>
  <path d="M63 36 Q67 33 71 36" stroke="#2C3E50" stroke-width="2.5" fill="none" stroke-linecap="round"/>
  <!-- 입 (음 하는 모양) -->
  <circle cx="60" cy="45" r="2.5" fill="#FF8E8E" opacity="0.7"/>
  <!-- 볼터치 -->
  <ellipse cx="47" cy="42" rx="4" ry="2.5" fill="#FFB3B3" opacity="0.5"/>
  <ellipse cx="73" cy="42" rx="4" ry="2.5" fill="#FFB3B3" opacity="0.5"/>
  <!-- 더듬이 -->
  <path d="M54 24 Q48 10 42 8" stroke="#2C3E50" stroke-width="2" fill="none" stroke-linecap="round"/>
  <circle cx="42" cy="8" r="3" fill="#FF6B6B"/>
  <path d="M66 24 Q72 10 78 8" stroke="#2C3E50" stroke-width="2" fill="none" stroke-linecap="round"/>
  <circle cx="78" cy="8" r="3" fill="#4ECDC4"/>
  <!-- 생각하는 손 (턱 짚기) -->
  <path d="M72 53 Q78 48 76 42" stroke="#FFE66D" stroke-width="4" fill="none" stroke-linecap="round"/>
  <!-- 생각 버블 -->
  <circle cx="92" cy="18" r="3" fill="#E8E8E8" opacity="0.7"/>
  <circle cx="98" cy="10" r="4.5" fill="#E8E8E8" opacity="0.7"/>
  <circle cx="107" cy="5" r="6" fill="#E8E8E8" opacity="0.8"/>
  <text x="102" y="8" font-size="8" fill="#7F8C8D">?</text>
  <!-- 다리 -->
  <line x1="55" y1="78" x2="52" y2="88" stroke="#2C3E50" stroke-width="2" stroke-linecap="round"/>
  <line x1="60" y1="79" x2="60" y2="90" stroke="#2C3E50" stroke-width="2" stroke-linecap="round"/>
  <line x1="65" y1="78" x2="68" y2="88" stroke="#2C3E50" stroke-width="2" stroke-linecap="round"/>
</svg>
